<?xml version="1.0" encoding="utf-8"?>
<!-- Generator: Adobe Illustrator 18.0.0, SVG Export Plug-In . SVG Version: 6.00 Build 0)  -->
<!DOCTYPE svg PUBLIC "-//W3C//DTD SVG 1.1//EN" "http://www.w3.org/Graphics/SVG/1.1/DTD/svg11.dtd">
<svg version="1.1" id="volume" xmlns="http://www.w3.org/2000/svg" xmlns:xlink="http://www.w3.org/1999/xlink" x="0px" y="0px"
	 viewBox="0 0 45 30" enable-background="new 0 0 45 30" xml:space="preserve">
<g>
	<polygon fill="#898989" points="4.5,10 4.5,20 13,20 25.5,28.7 25.5,1.3 13,10 	"/>
	<path fill="#898989" d="M31.8,1.5l-1.2,1.6c0.1,0,6.5,4.7,6.5,11.9c0,7.2-6.4,11.8-6.5,11.9l1.2,1.6c0.3-0.2,7.3-5.3,7.3-13.5
		S32.1,1.7,31.8,1.5z"/>
	<path fill="#898989" d="M30.1,9.5L28.9,11c0,0,1.9,1.6,1.9,4c0,2.4-1.9,4-1.9,4l1.2,1.6c0.1-0.1,2.7-2.2,2.7-5.5S30.2,9.5,30.1,9.5
		z"/>
</g>
</svg>
